<?xml version="1.0" encoding="iso-8859-1"?>
<!-- Generator: Adobe Illustrator 19.0.0, SVG Export Plug-In . SVG Version: 6.00 Build 0)  -->
<svg version="1.1" id="Capa_1" xmlns="http://www.w3.org/2000/svg" xmlns:xlink="http://www.w3.org/1999/xlink" x="0px" y="0px"
	 viewBox="0 0 512 512" style="enable-background:new 0 0 512 512;" xml:space="preserve">
<circle style="fill:#FFCF35;" cx="256" cy="256" r="256"/>
<path style="fill:#FFB344;" d="M372.177,484.177C455.167,441.837,512,355.557,512,256c0-9.411-0.523-18.699-1.513-27.846
	L302.833,20.5l-82.5,11.167L209.167,74.5l49.167,49.167l-12,234.667L372.177,484.177z"/>
<path style="fill:#FFECB3;" d="M60.131,387l122.934-122.934c40.28-40.28,105.588-40.281,145.869,0L451.869,387H60.131z"/>
<path style="fill:#FFD863;" d="M328.934,264.066c-20.055-20.055-46.315-30.122-72.601-30.206V387h195.535L328.934,264.066z"/>
<path style="fill:#027ADB;" d="M321,335H191V203.5c0-11.874,9.626-21.5,21.5-21.5h87c11.874,0,21.5,9.626,21.5,21.5V335z"/>
<path style="fill:#025EC3;" d="M321,203.5c0-11.874-9.626-21.5-21.5-21.5h-43.167v153H321V203.5z"/>
<path style="fill:#21BDED;" d="M256,250.333L256,250.333c-9.113,0-16.5-7.387-16.5-16.5v-163c0-9.113,7.387-16.5,16.5-16.5l0,0
	c9.113,0,16.5,7.387,16.5,16.5v163C272.5,242.946,265.113,250.333,256,250.333z"/>
<path style="fill:#027ADB;" d="M256.333,54.35v195.966c8.957-0.179,16.167-7.483,16.167-16.483v-163
	C272.5,61.833,265.291,54.53,256.333,54.35z"/>
<path style="fill:#0D52B5;" d="M302.833,74.5h-93.667v-54h93.667V74.5z M232.167,51.5h47.667v-8h-47.667L232.167,51.5L232.167,51.5z
	"/>
<polygon style="fill:#144E93;" points="302.833,20.5 256.333,20.5 256.333,43.5 279.833,43.5 279.833,51.5 256.333,51.5 
	256.333,74.5 302.833,74.5 "/>
<path style="fill:#FFECB3;" d="M451.869,387L332.626,267.757C285.788,258.873,235.113,284.247,192,300
	c-23.518,8.71-46.279,18.935-70.262,25.393L60.131,387H451.869z"/>
<path style="fill:#FFD863;" d="M332.626,267.757c-24.917-4.726-50.92,0.243-76.292,8.302V387h195.535L332.626,267.757z"/>
<path style="fill:#FF6838;" d="M32.561,381C76.383,459.165,160.015,512,256,512s179.617-52.835,223.439-131H32.561z"/>
<path style="fill:#AE4E32;" d="M479.439,381H256.333v130.997C352.178,511.875,435.667,459.074,479.439,381z"/>
<g>
</g>
<g>
</g>
<g>
</g>
<g>
</g>
<g>
</g>
<g>
</g>
<g>
</g>
<g>
</g>
<g>
</g>
<g>
</g>
<g>
</g>
<g>
</g>
<g>
</g>
<g>
</g>
<g>
</g>
</svg>
